<?xml version="1.0" standalone="no"?>
<!DOCTYPE svg PUBLIC "-//W3C//DTD SVG 20010904//EN"
 "http://www.w3.org/TR/2001/REC-SVG-20010904/DTD/svg10.dtd">
<svg version="1.0" xmlns="http://www.w3.org/2000/svg"
 width="471.000000pt" height="471.000000pt" viewBox="0 0 471.000000 471.000000"
 preserveAspectRatio="xMidYMid meet">
<metadata>
Created by potrace 1.14, written by Peter Selinger 2001-2017
</metadata>
<g transform="translate(0.000000,471.000000) scale(0.100000,-0.100000)"
fill="#000000" stroke="none">
<path d="M2335 3997 c-81 -94 -151 -190 -233 -324 -117 -188 -156 -277 -176
-403 -18 -106 -20 -131 -20 -195 1 -110 10 -166 38 -225 33 -70 32 -79 -4
-114 -17 -16 -40 -46 -50 -67 -11 -21 -24 -40 -29 -43 -5 -3 -47 3 -93 13
-259 61 -416 40 -596 -78 -90 -58 -146 -83 -261 -117 -92 -27 -94 -27 -97 -49
-6 -39 310 -307 436 -371 46 -23 69 -28 138 -29 45 -1 84 -4 86 -6 2 -2 6 -36
8 -75 15 -233 287 -471 549 -483 72 -3 209 38 288 85 31 19 61 34 66 34 6 0
19 -14 30 -30 25 -38 123 -90 246 -131 80 -27 104 -31 164 -27 77 5 95 14 237
106 91 60 133 109 164 192 27 73 22 248 -11 358 -7 20 -4 22 36 23 179 2 335
81 574 290 130 113 148 133 141 156 -9 28 -111 129 -174 172 -73 49 -235 114
-337 136 -44 9 -100 23 -125 30 -47 14 -173 28 -225 26 -64 -3 -233 -44 -303
-73 -94 -39 -105 -31 -69 50 55 122 83 319 62 437 -31 170 -54 245 -123 385
-68 137 -254 360 -301 360 -14 -1 -31 -6 -36 -13z m152 -160 c92 -101 196
-284 219 -383 8 -38 20 -82 25 -99 6 -16 13 -81 16 -143 l6 -113 -44 -37 c-24
-20 -79 -73 -123 -117 -44 -44 -73 -69 -66 -56 15 29 111 127 160 164 41 31
37 42 -9 20 -35 -18 -147 -123 -173 -163 -9 -14 -19 -22 -23 -18 -21 20 126
177 189 203 45 19 60 41 21 31 -58 -15 -131 -79 -234 -206 -16 -20 -20 -22
-21 -8 0 21 39 68 141 170 54 55 68 73 46 62 -45 -24 -122 -100 -179 -176 -50
-67 -58 -74 -71 -62 -6 6 21 51 48 80 5 7 34 39 64 73 30 34 76 78 103 97 26
20 48 40 48 45 0 34 -244 -191 -279 -258 -12 -23 -20 -31 -21 -20 0 32 27 81
73 132 25 28 43 52 41 54 -5 6 -77 -60 -102 -94 -23 -32 -29 -24 -9 12 12 21
52 66 151 172 48 50 48 52 13 26 -22 -16 -75 -67 -119 -114 -55 -59 -78 -78
-73 -61 16 54 103 158 185 222 19 15 30 28 23 28 -17 0 -101 -69 -160 -133
-29 -30 -55 -52 -57 -48 -6 9 36 74 72 113 14 15 22 31 19 35 -4 3 -28 -16
-53 -43 -28 -30 -41 -39 -34 -24 17 32 91 129 119 154 11 11 21 24 21 30 0 6
-29 -19 -65 -54 -59 -58 -65 -62 -55 -34 6 17 40 64 76 103 35 39 64 74 64 77
0 14 -45 -24 -104 -88 -36 -40 -66 -68 -66 -61 0 9 77 113 100 133 3 3 14 15
24 28 36 41 5 22 -56 -35 -39 -37 -56 -49 -48 -33 15 29 88 119 110 137 8 6
12 15 8 18 -4 4 -28 -13 -54 -39 -26 -25 -50 -44 -52 -41 -8 8 48 94 86 129
22 21 31 36 22 36 -8 0 -36 -21 -63 -47 l-49 -48 20 41 c11 22 28 47 37 54 22
18 78 100 69 100 -4 0 -32 -26 -61 -57 -34 -37 -53 -52 -53 -41 0 9 20 38 44
65 49 53 52 68 7 35 -16 -11 -31 -19 -34 -16 -9 9 8 52 31 78 27 32 27 36 2
29 -23 -6 -50 13 -50 35 0 9 10 26 21 38 20 22 23 22 43 7 11 -10 54 -53 93
-96z m-164 3 c3 -11 1 -20 -4 -20 -5 0 -9 2 -9 4 0 2 -3 11 -6 20 -3 9 -2 16
4 16 5 0 12 -9 15 -20z m-13 -74 l0 -31 -20 25 c-20 26 -25 51 -13 64 12 12
33 -26 33 -58z m-24 -39 c9 -16 13 -31 11 -33 -8 -8 -67 69 -61 78 8 12 32
-10 50 -45z m4 -101 c0 -12 -4 -16 -9 -10 -78 87 -83 94 -71 109 11 14 18 9
47 -31 18 -26 33 -57 33 -68z m-48 3 c48 -69 53 -112 6 -51 -18 23 -36 42 -41
42 -9 0 -1 -15 49 -89 39 -58 16 -49 -43 17 -30 35 -58 61 -60 58 -3 -3 16
-33 43 -68 71 -94 72 -97 21 -48 -59 56 -60 45 -2 -27 25 -30 45 -62 45 -71 0
-11 -15 -1 -45 28 -56 55 -57 44 -5 -31 61 -87 54 -104 -15 -40 -77 71 -91 66
-22 -9 37 -40 67 -79 67 -88 0 -17 -15 -6 -83 62 -46 45 -64 40 -21 -7 88 -94
104 -113 104 -126 0 -13 -20 -1 -50 29 -3 3 -26 24 -52 48 -75 66 -81 49 -7
-21 68 -64 128 -137 113 -137 -5 0 -33 23 -63 50 -83 77 -85 59 -2 -24 40 -41
72 -79 70 -85 -3 -7 -47 22 -98 64 -52 41 -97 72 -100 69 -3 -3 0 -8 7 -13 26
-16 175 -158 195 -185 31 -43 10 -29 -136 96 -17 15 -34 24 -37 22 -5 -6 112
-119 169 -162 18 -15 29 -28 23 -30 -16 -5 -61 21 -122 72 -29 25 -56 43 -59
41 -2 -3 7 -14 20 -26 60 -52 99 -90 99 -98 0 -22 -32 -17 -67 11 -60 47 -83
56 -48 18 31 -34 17 -32 -22 3 -13 11 -23 15 -23 9 0 -7 14 -24 30 -39 17 -14
30 -31 29 -37 -1 -16 -67 -68 -78 -62 -15 9 -71 152 -71 180 0 18 5 26 17 26
14 0 12 4 -7 25 -27 28 -22 42 9 25 31 -16 28 13 -4 34 -16 11 -25 26 -25 42
0 23 2 25 15 14 22 -18 31 -4 12 18 -26 29 -19 82 10 82 10 0 13 6 9 15 -3 8
-9 22 -13 32 -5 13 -2 15 15 11 15 -4 22 -2 22 8 0 8 -4 14 -10 14 -11 0 -13
39 -4 64 3 9 18 16 32 16 24 0 25 1 7 20 -20 22 -14 50 10 50 11 0 15 6 10 19
-4 12 9 38 39 79 24 33 52 74 61 92 9 17 21 30 28 27 6 -2 28 -28 49 -58z
m452 -647 c-22 -18 -63 -56 -91 -83 -29 -27 -53 -46 -53 -43 0 21 40 71 102
129 58 54 74 64 77 49 2 -11 -11 -30 -35 -52z m16 -41 c-11 -22 -94 -103 -111
-109 -20 -8 -7 25 24 61 32 37 88 80 95 72 2 -2 -1 -13 -8 -24z m-36 -100
c-18 -30 -34 -40 -34 -22 0 12 41 63 47 57 3 -2 -3 -18 -13 -35z m-167 -17
c-3 -3 -12 -4 -19 -1 -8 3 -5 6 6 6 11 1 17 -2 13 -5z m-194 -11 c-7 -2 -19
-2 -25 0 -7 3 -2 5 12 5 14 0 19 -2 13 -5z m72 -13 c4 -6 -6 -10 -22 -10 -22
0 -25 2 -13 10 19 12 27 12 35 0z m190 -6 c12 -5 14 -9 4 -14 -14 -9 -39 -2
-39 11 0 11 12 11 35 3z m-80 -14 c3 -5 2 -10 -4 -10 -5 0 -13 5 -16 10 -3 6
-2 10 4 10 5 0 13 -4 16 -10z m719 -17 c0 -13 4 -19 13 -16 7 3 13 9 13 14 0
12 51 11 69 0 12 -8 13 -12 1 -25 -23 -29 -2 -29 24 -1 14 15 30 24 36 20 5
-3 42 -15 80 -26 71 -19 213 -75 285 -112 73 -37 157 -109 143 -122 -2 -3 -21
-12 -42 -20 -37 -16 -38 -16 -32 2 4 11 -7 4 -30 -17 l-36 -35 16 33 c22 43 8
40 -26 -5 -22 -28 -28 -32 -28 -17 -1 15 -10 9 -40 -26 -42 -47 -55 -40 -18
10 28 39 16 50 -14 14 -49 -60 -87 -94 -104 -94 -15 0 -14 4 8 28 71 75 98
108 98 117 -1 12 -150 -144 -150 -156 0 -5 -10 -9 -22 -9 -19 0 -12 11 42 66
79 80 51 70 -42 -16 -41 -37 -79 -63 -95 -65 -25 -2 -23 0 18 34 58 48 101 92
96 98 -3 2 -51 -30 -107 -71 -56 -42 -106 -76 -111 -76 -19 0 -8 17 33 50 54
45 138 133 133 138 -3 3 -34 -23 -70 -57 -63 -59 -127 -105 -163 -118 -9 -4
26 36 78 88 53 52 106 113 118 137 27 48 16 58 -12 11 -28 -48 -227 -239 -248
-239 -27 0 -23 8 25 49 73 62 157 153 157 169 0 9 -20 -6 -46 -36 -69 -77
-194 -176 -208 -162 -7 7 13 34 69 92 101 103 105 108 105 119 0 5 -4 9 -10 9
-5 0 -10 -3 -10 -7 0 -5 -32 -40 -70 -80 -71 -74 -146 -131 -157 -120 -3 4 38
52 91 107 53 55 96 106 96 113 0 6 -44 -31 -97 -83 -126 -124 -121 -120 -146
-120 -15 0 2 22 74 89 52 48 104 107 117 130 31 55 16 52 -28 -6 -36 -47 -195
-193 -211 -193 -26 0 1 44 71 118 44 46 87 97 95 115 13 27 9 24 -27 -18 -24
-27 -68 -74 -98 -105 -44 -45 -55 -52 -58 -36 -3 11 12 36 40 65 64 68 76 83
93 124 20 48 13 47 -24 -5 -16 -24 -48 -63 -71 -88 -33 -35 -43 -41 -51 -30
-15 25 -11 35 36 86 46 50 89 123 78 133 -3 4 -8 1 -10 -6 -8 -21 -105 -143
-114 -143 -18 0 -8 26 26 65 33 38 61 95 47 95 -4 0 -27 -27 -52 -61 -24 -34
-46 -56 -48 -49 -2 6 5 21 16 33 11 12 27 36 36 54 12 24 27 35 58 43 22 7 49
10 58 7 9 -2 25 2 35 9 12 9 45 12 109 10 85 -2 91 -4 90 -23z m-774 7 c12 -8
12 -10 -3 -16 -9 -3 -25 -3 -34 0 -15 6 -15 8 -3 16 8 6 17 10 20 10 3 0 12
-4 20 -10z m-305 -10 c-3 -5 -13 -10 -21 -10 -8 0 -12 5 -9 10 3 6 13 10 21
10 8 0 12 -4 9 -10z m93 -2 c-5 -15 -58 -24 -58 -10 0 15 12 22 38 22 14 0 22
-5 20 -12z m52 -13 c0 -9 -9 -15 -22 -15 -22 1 -23 1 -4 15 25 19 26 19 26 0z
m372 -3 c9 -9 6 -12 -14 -12 -26 0 -43 12 -32 23 8 8 33 2 46 -11z m-267 -2
c3 -5 -1 -10 -9 -10 -8 0 -18 5 -21 10 -3 6 1 10 9 10 8 0 18 -4 21 -10z m170
-8 c-3 -3 -11 0 -18 7 -9 10 -8 11 6 5 10 -3 15 -9 12 -12z m-55 -1 c0 -14
-18 -23 -30 -16 -6 4 -8 11 -5 16 8 12 35 12 35 0z m-406 -15 c-3 -8 -12 -17
-19 -20 -19 -7 -31 14 -14 25 21 13 39 11 33 -5z m80 5 c17 -6 17 -9 3 -23
-10 -9 -26 -14 -41 -11 -21 4 -24 8 -15 24 10 20 22 22 53 10z m166 -6 c0 -9
-7 -18 -16 -22 -18 -7 -39 11 -30 26 11 17 46 13 46 -4z m490 1 c0 -8 -9 -24
-20 -37 -17 -21 -21 -22 -30 -9 -8 11 -3 20 18 37 32 27 32 27 32 9z m-400 -6
c0 -5 -4 -10 -10 -10 -5 0 -10 5 -10 10 0 6 5 10 10 10 6 0 10 -4 10 -10z
m-200 -15 c-7 -8 -19 -15 -27 -15 -13 0 -13 3 -3 15 7 8 19 15 27 15 13 0 13
-3 3 -15z m390 -11 c0 -12 -4 -12 -20 -4 -11 6 -18 15 -15 20 8 13 35 0 35
-16z m-331 -21 c-22 -25 -3 -22 41 7 36 24 46 27 48 15 2 -8 14 -15 26 -15 13
0 30 -8 40 -19 16 -17 15 -19 -6 -34 -22 -15 -21 -15 14 -5 44 13 60 4 32 -17
-18 -13 -16 -14 17 -10 25 3 41 0 49 -10 10 -12 9 -16 -1 -19 -8 -2 -21 -7
-29 -10 -8 -3 22 -5 68 -4 75 1 103 -4 91 -17 -3 -2 -34 -5 -69 -7 -73 -3 -85
-11 -64 -44 11 -16 12 -24 3 -29 -12 -8 -29 11 -29 33 0 6 -7 12 -15 12 -14 0
-14 -2 0 -23 16 -26 31 -180 21 -221 -10 -42 -23 -22 -28 46 -3 39 -13 76 -27
98 -25 41 -26 32 -7 -36 15 -49 16 -110 2 -132 -4 -7 -17 -12 -29 -12 -19 0
-19 -2 -7 -14 8 -8 28 -17 44 -20 43 -8 44 -16 2 -16 -20 0 -53 7 -72 15 -31
13 -35 19 -30 38 3 13 3 27 -1 31 -7 7 -43 -43 -43 -60 0 -6 27 -19 60 -29 33
-10 60 -22 60 -26 0 -22 -29 -20 -123 7 -15 5 -17 1 -11 -20 7 -29 2 -31 -27
-16 -34 19 -22 -18 14 -40 38 -24 23 -27 -22 -4 -43 21 -51 10 -18 -24 22 -21
38 -27 80 -29 28 -1 55 -2 60 -3 4 0 7 -5 7 -11 0 -15 -102 -4 -140 16 -53 27
-223 160 -268 209 -51 55 -92 137 -92 184 0 18 4 31 8 28 5 -3 19 16 31 42 15
29 19 48 12 50 -29 10 19 87 49 79 13 -3 24 7 39 34 12 22 28 40 34 40 17 2
51 -2 56 -7 9 -9 -23 -33 -51 -40 -48 -10 -13 -23 45 -17 40 5 45 7 31 18 -23
16 -8 38 21 31 14 -4 28 0 36 10 19 23 52 34 67 22 9 -8 9 -14 1 -25z m265 24
c18 -13 18 -14 1 -21 -12 -4 -26 0 -39 14 l-20 20 20 0 c11 0 28 -6 38 -13z
m140 4 c3 -4 3 -11 0 -14 -8 -8 -34 3 -34 14 0 11 27 12 34 0z m-203 -19 c28
-23 11 -37 -19 -16 -22 15 -29 34 -13 34 5 0 19 -8 32 -18z m-450 -30 c-13
-25 -41 -37 -41 -17 0 14 40 48 48 41 2 -3 -1 -13 -7 -24z m575 -7 c25 -19 35
-19 28 0 -7 18 0 19 27 5 39 -21 18 -30 -72 -30 -68 0 -90 3 -86 13 2 6 13 12
25 12 11 0 24 4 28 8 11 11 28 8 50 -8z m137 -25 c3 -11 3 -20 1 -20 -7 0 -44
44 -44 52 0 16 38 -12 43 -32z m-1195 -22 c13 -16 31 -28 40 -28 12 0 11 5 -6
23 -26 28 -20 37 25 37 75 0 126 -21 181 -73 50 -49 62 -67 44 -67 -5 0 -32
20 -61 45 -67 57 -79 57 -32 1 14 -17 11 -16 -16 3 -18 12 -33 17 -33 11 0
-13 34 -47 95 -99 51 -42 12 -23 -73 35 -46 32 -58 38 -47 21 16 -26 57 -58
125 -100 29 -18 36 -26 20 -22 -38 11 -101 49 -165 101 -34 28 -53 39 -46 27
14 -27 92 -92 160 -134 30 -18 50 -34 44 -36 -11 -4 -87 38 -162 90 -59 41
-193 175 -186 187 12 19 70 5 93 -22z m-73 -37 c58 -70 165 -162 238 -204 26
-15 47 -30 47 -32 0 -11 -106 44 -184 97 -63 42 -85 53 -74 36 8 -13 51 -46
94 -75 43 -28 88 -59 99 -67 19 -15 19 -15 -7 -6 -15 5 -45 21 -67 35 -22 14
-43 25 -46 25 -11 0 -99 62 -155 110 -85 72 -93 69 -14 -7 39 -37 114 -94 165
-127 61 -38 83 -56 64 -52 -42 10 -163 79 -264 152 -86 61 -111 73 -76 34 24
-27 233 -166 262 -174 11 -4 27 -14 35 -23 12 -15 10 -16 -16 -9 -57 14 -123
52 -224 129 -57 43 -99 70 -93 59 14 -27 102 -101 174 -146 31 -20 57 -39 57
-42 0 -12 -118 62 -180 112 -36 29 -67 50 -70 48 -6 -7 63 -72 119 -112 24
-18 41 -32 38 -32 -18 0 -132 62 -174 95 l-48 38 57 -57 c89 -88 25 -66 -79
28 -59 53 -64 66 -28 66 14 0 24 5 22 12 -4 19 65 60 90 53 17 -4 21 -2 17 9
-7 18 31 40 57 33 12 -3 19 0 19 9 0 17 5 17 31 4 16 -9 19 -7 19 8 0 10 3 22
6 25 10 9 65 -24 89 -52z m1162 25 c8 -8 -23 -18 -43 -14 -10 1 -19 9 -22 16
-3 10 4 12 28 8 17 -2 34 -7 37 -10z m-809 -16 c17 -11 32 -24 32 -30 0 -17
-13 -11 -50 20 -40 34 -31 39 18 10z m893 4 c12 -15 11 -16 -11 -9 -35 10 -49
25 -23 25 11 0 27 -7 34 -16z m-806 -56 c-5 -52 -6 -54 -14 -33 -5 11 -4 28 1
38 12 23 16 22 13 -5z m840 12 c18 -8 18 -9 -5 -9 -14 0 -34 4 -45 9 -18 8
-18 9 5 9 14 0 34 -4 45 -9z m-915 -77 c3 -3 -9 1 -26 10 -17 9 -37 23 -44 33
-12 14 55 -27 70 -43z m790 37 c8 -15 8 -20 -2 -21 -36 -3 -73 16 -62 32 10
17 53 9 64 -11z m52 -12 c-13 -13 -32 -2 -32 18 0 12 4 13 21 3 14 -7 18 -14
11 -21z m38 7 c0 -8 -2 -15 -4 -15 -2 0 -6 7 -10 15 -3 8 -1 15 4 15 6 0 10
-7 10 -15z m57 -11 c-3 -3 -12 -4 -19 -1 -8 3 -5 6 6 6 11 1 17 -2 13 -5z
m1034 -62 c-27 -26 -60 -54 -74 -61 -29 -16 -57 -9 -57 14 0 11 11 15 39 15
34 0 38 3 34 20 -5 18 8 25 38 22 4 -1 15 8 24 18 10 11 24 20 32 20 7 0 -9
-21 -36 -48z m-1036 28 c3 -5 1 -10 -4 -10 -6 0 -11 5 -11 10 0 6 2 10 4 10 3
0 8 -4 11 -10z m-1635 -56 c31 -31 46 -52 35 -48 -35 12 -115 75 -115 90 0 27
26 14 80 -42z m1515 36 c0 -22 -39 -19 -43 3 -3 15 1 18 20 15 12 -2 23 -10
23 -18z m45 -1 c0 -6 -4 -7 -10 -4 -5 3 -10 11 -10 16 0 6 5 7 10 4 6 -3 10
-11 10 -16z m-149 4 c7 -41 6 -163 0 -167 -5 -3 -9 12 -9 35 -1 22 -4 62 -7
89 -4 33 -3 50 4 50 6 0 12 -3 12 -7z m-1499 -25 c27 -27 11 -34 -35 -14 -33
13 -37 13 -53 -5 -23 -25 -64 -26 -64 0 0 13 11 21 43 28 66 16 85 15 109 -9z
m1553 -37 c-2 -9 -4 -40 -4 -68 -1 -86 -19 -60 -23 33 -2 47 -1 88 1 90 8 8
29 -39 26 -55z m170 29 c3 -5 1 -10 -4 -10 -6 0 -11 5 -11 10 0 6 2 10 4 10 3
0 8 -4 11 -10z m-116 -36 c-16 -19 -26 -18 -32 5 -6 26 1 33 25 20 15 -8 17
-13 7 -25z m44 21 c4 -8 2 -17 -3 -20 -6 -4 -10 3 -10 14 0 25 6 27 13 6z
m965 -33 c27 -15 28 -28 4 -41 -22 -12 -84 36 -62 49 16 10 28 8 58 -8z m-753
-100 c-1 -1 -9 0 -17 3 -16 6 -50 90 -40 100 6 5 63 -97 57 -103z m-1925 88
c-11 -7 6 -10 55 -10 50 -1 64 -4 49 -10 -36 -14 -42 -34 -8 -25 16 4 43 9 59
11 l30 4 -35 -20 -35 -21 38 5 c20 4 54 8 75 11 l37 5 -50 -25 c-27 -13 -54
-26 -60 -28 -5 -3 -8 -7 -5 -10 3 -3 43 8 90 24 46 16 89 28 95 26 5 -2 -19
-19 -55 -37 -36 -18 -60 -35 -53 -37 6 -2 25 3 42 11 36 19 151 47 151 37 0
-3 -29 -24 -65 -46 -87 -54 -82 -66 8 -17 65 36 147 67 147 56 0 -2 -24 -19
-53 -38 -56 -36 -87 -66 -68 -66 6 0 34 17 62 39 28 21 67 43 87 49 37 11 37
11 12 -6 -40 -28 -90 -73 -90 -83 0 -5 35 16 78 47 106 77 153 99 87 42 -27
-24 -68 -63 -90 -86 -35 -39 -110 -92 -128 -92 -12 0 -7 28 6 34 12 6 -19 1
-62 -11 -20 -5 -23 -3 -17 12 6 16 2 17 -34 11 -53 -8 -66 0 -43 26 18 21 18
21 -23 16 -52 -7 -74 4 -54 27 12 14 10 16 -16 12 -41 -6 -67 9 -58 35 5 18 3
20 -14 15 -12 -3 -26 1 -33 9 -6 8 -8 14 -3 14 5 1 -6 7 -23 15 -18 8 -33 21
-33 29 0 8 -9 17 -19 21 -11 3 -22 12 -25 20 -4 11 3 15 27 15 24 0 28 -3 17
-10z m1960 -47 c11 -25 19 -47 17 -49 -10 -11 -57 59 -57 86 0 25 21 6 40 -37z
m653 23 l37 -23 -57 -35 c-74 -45 -170 -93 -207 -102 -24 -6 -33 -1 -67 34
-21 22 -46 54 -54 70 -15 29 -15 30 9 30 28 0 50 -19 71 -61 9 -15 24 -33 36
-39 18 -10 17 -5 -11 44 -36 67 -24 72 37 15 25 -22 47 -38 51 -34 3 3 -8 19
-26 36 -18 16 -32 34 -32 40 0 21 38 7 70 -26 19 -19 43 -35 54 -35 16 0 13 5
-14 25 -19 14 -38 32 -42 39 -12 21 21 29 46 11 58 -42 67 -47 74 -41 4 4 -8
20 -27 35 -25 21 -30 30 -20 34 24 9 33 7 72 -17z m-953 4 c0 -5 -4 -10 -10
-10 -5 0 -10 5 -10 10 0 6 5 10 10 10 6 0 10 -4 10 -10z m400 -68 c16 -31 41
-70 55 -86 27 -31 32 -44 13 -29 -79 60 -104 85 -124 126 -48 93 6 83 56 -11z
m-192 25 c2 -12 -3 -17 -17 -17 -23 0 -24 1 -15 25 8 19 28 15 32 -8z m258
-57 c16 -30 36 -60 44 -67 9 -8 10 -12 3 -13 -20 0 -103 117 -103 147 0 15 2
15 14 3 7 -8 26 -40 42 -70z m-466 56 c0 -8 -4 -17 -9 -21 -12 -7 -24 12 -16
25 9 15 25 12 25 -4z m503 -24 c10 -20 33 -55 52 -76 41 -47 35 -69 -7 -29
-28 26 -88 118 -88 136 0 21 27 2 43 -31z m59 24 c44 -45 98 -119 98 -134 0
-35 -88 37 -122 100 -23 43 -7 66 24 34z m-1392 -31 c0 -2 -11 -10 -24 -17
-44 -24 -109 -83 -146 -133 -50 -67 -71 -111 -29 -60 95 117 190 187 269 200
30 5 27 3 -19 -18 -99 -45 -221 -158 -221 -205 0 -9 13 2 30 24 30 41 120 118
128 110 2 -3 -12 -19 -33 -37 -20 -18 -45 -50 -56 -71 l-20 -40 34 5 c41 5 59
15 52 27 -3 5 -16 5 -31 0 -22 -9 -24 -8 -14 10 16 30 56 53 80 45 20 -6 20
-8 6 -24 -34 -37 -13 -29 47 18 72 56 124 85 131 72 3 -5 -9 -16 -28 -25 -19
-9 -56 -36 -83 -61 -43 -41 -45 -45 -23 -43 19 2 25 -1 23 -15 -1 -13 4 -17
14 -13 17 7 37 -13 58 -59 l14 -30 13 33 c16 41 40 41 56 0 10 -27 9 -35 -5
-50 -20 -22 -13 -23 33 -3 19 8 41 12 48 9 9 -3 17 3 21 15 7 24 30 28 38 8 7
-19 -3 -31 -38 -50 -48 -26 -13 -19 49 9 31 14 61 22 67 19 5 -4 16 1 24 11
11 15 16 16 26 7 10 -10 7 -14 -12 -22 -13 -5 -46 -19 -73 -30 -27 -12 -55
-20 -62 -17 -21 8 -33 -23 -23 -57 10 -36 5 -45 -15 -27 -13 10 -15 6 -12 -34
4 -56 8 -61 36 -46 23 12 55 6 46 -9 -4 -5 -20 -12 -37 -16 -27 -6 -29 -8 -13
-20 17 -12 17 -15 0 -59 -23 -59 -41 -72 -33 -23 7 47 -4 47 -26 2 -9 -19 -21
-35 -27 -35 -14 0 -13 23 2 38 6 6 9 15 5 18 -4 4 -17 -4 -30 -18 -13 -14 -32
-30 -43 -36 -21 -11 -71 -5 -80 10 -12 18 29 47 81 58 85 18 88 32 22 94 -48
44 -57 58 -57 87 0 48 -24 79 -61 79 -17 0 -44 7 -60 16 -43 22 -68 25 -93 12
-19 -10 -20 -10 -8 5 9 10 10 22 5 31 -7 14 -14 12 -47 -11 -21 -15 -33 -29
-27 -31 6 -2 11 -10 11 -18 0 -17 21 -18 39 -1 11 10 12 8 4 -8 -5 -11 -19
-40 -31 -64 -23 -49 -20 -63 19 -100 16 -14 31 -39 35 -55 l7 -29 -32 19 c-51
30 -74 60 -73 94 0 17 6 38 13 46 8 10 8 14 0 14 -6 0 -11 -4 -11 -8 0 -5 -7
-17 -16 -28 -15 -19 -15 -19 -11 1 3 11 12 37 21 57 14 33 14 37 1 31 -9 -3
-23 -19 -31 -35 -8 -16 -19 -26 -24 -23 -12 7 6 64 31 98 19 26 19 28 2 19
-22 -12 -49 -42 -55 -62 -3 -9 -7 -10 -11 -3 -4 6 12 36 34 68 22 31 37 60 34
63 -3 3 -23 -11 -44 -32 -21 -21 -41 -34 -44 -29 -18 30 24 185 59 214 18 15
18 5 -2 -32 -27 -53 -8 -42 24 13 37 65 81 108 146 142 51 27 56 29 56 21z
m125 -25 c3 -5 -1 -10 -10 -10 -9 0 -13 5 -10 10 3 6 8 10 10 10 2 0 7 -4 10
-10z m562 4 c-3 -3 -12 -4 -19 -1 -8 3 -5 6 6 6 11 1 17 -2 13 -5z m-632 -44
c-3 -5 -14 -10 -23 -10 -15 0 -15 2 -2 10 20 13 33 13 25 0z m985 0 c0 -5 -4
-10 -10 -10 -5 0 -10 5 -10 10 0 6 5 10 10 10 6 0 10 -4 10 -10z m50 -16 c0
-8 -6 -11 -15 -8 -8 4 -15 12 -15 20 0 8 6 11 15 8 8 -4 15 -12 15 -20z m-999
-26 c-20 -18 -42 -28 -62 -28 -27 0 -30 2 -19 15 7 9 20 15 29 14 31 -3 40 1
35 15 -3 9 2 16 13 18 34 8 36 -5 4 -34z m1064 14 c-3 -3 -11 0 -18 7 -9 10
-8 11 6 5 10 -3 15 -9 12 -12z m-500 -12 c-3 -5 -11 -10 -16 -10 -6 0 -7 5 -4
10 3 6 11 10 16 10 6 0 7 -4 4 -10z m401 -65 c2 -40 -1 -55 -9 -52 -7 2 -13
30 -15 68 -2 51 -1 61 9 52 7 -7 14 -38 15 -68z m-256 24 c-6 -11 -15 -17 -21
-14 -5 4 -5 14 1 26 6 11 15 17 21 14 5 -4 5 -14 -1 -26z m317 -7 c4 -31 3
-33 -16 -22 -26 14 -30 63 -4 58 11 -2 18 -15 20 -36z m-573 19 c3 -5 -1 -11
-9 -15 -15 -6 -29 7 -18 18 9 9 21 8 27 -3z m316 1 c0 -13 -12 -22 -22 -16
-10 6 -1 24 13 24 5 0 9 -4 9 -8z m40 -2 c0 -5 -5 -10 -11 -10 -5 0 -7 5 -4
10 3 6 8 10 11 10 2 0 4 -4 4 -10z m50 -5 c0 -8 -4 -15 -9 -15 -13 0 -22 16
-14 24 11 11 23 6 23 -9z m58 -36 c-2 -26 -8 -35 -25 -37 -21 -3 -21 -1 -11
35 5 21 12 42 15 46 11 18 24 -12 21 -44z m161 25 c3 -16 1 -17 -13 -5 -19 16
-21 34 -3 29 6 -3 14 -13 16 -24z m-988 1 c0 -6 -10 -12 -23 -13 -19 -4 -20
-2 -9 12 15 17 33 18 32 1z m569 7 c0 -10 -21 -32 -31 -32 -4 0 -5 9 -2 20 5
19 33 29 33 12z m-163 -8 c-3 -3 -12 -4 -19 -1 -8 3 -5 6 6 6 11 1 17 -2 13
-5z m637 -20 c9 -22 8 -24 -9 -18 -8 4 -15 12 -15 20 0 19 16 18 24 -2z
m-1105 -30 c-9 -11 -15 -12 -23 -4 -8 8 -7 13 4 20 20 12 33 1 19 -16z m101
16 c0 -5 -7 -10 -15 -10 -8 0 -15 5 -15 10 0 6 7 10 15 10 8 0 15 -4 15 -10z
m620 -5 c0 -8 -7 -15 -15 -15 -9 0 -12 6 -9 15 4 8 10 15 15 15 5 0 9 -7 9
-15z m50 11 c0 -3 -4 -8 -10 -11 -5 -3 -10 -1 -10 4 0 6 5 11 10 11 6 0 10 -2
10 -4z m50 -11 c-7 -8 -16 -12 -21 -9 -13 8 -1 24 18 24 13 0 13 -3 3 -15z
m-155 -4 c7 -12 -12 -24 -25 -16 -11 7 -4 25 10 25 5 0 11 -4 15 -9z m393 -9
c6 -18 -15 -14 -22 4 -4 10 -1 14 6 12 6 -2 14 -10 16 -16z m96 2 c10 -25 -1
-29 -14 -5 -6 12 -7 21 -1 21 5 0 12 -7 15 -16z m-156 -11 c5 -10 8 -32 5 -49
-4 -25 0 -32 23 -43 20 -9 24 -15 15 -20 -10 -7 -4 -19 24 -50 42 -46 37 -56
-7 -14 -38 37 -44 24 -8 -16 20 -21 36 -30 48 -27 27 9 43 -8 62 -65 21 -62
19 -126 -5 -167 -19 -31 -200 -146 -249 -157 -16 -3 -62 -1 -103 6 -101 16
-153 56 -184 139 -12 33 -24 60 -27 60 -11 0 11 -87 31 -120 l21 -35 -24 16
c-25 16 -84 109 -60 94 10 -6 12 -4 6 11 -4 10 -10 40 -13 67 -6 49 6 64 23
27 14 -30 32 -11 39 40 l6 45 -17 -30 c-14 -25 -18 -27 -23 -13 -3 10 -6 39
-5 65 1 57 24 73 24 17 0 -41 14 -38 16 4 1 15 2 35 3 45 1 9 9 17 19 17 29 0
33 -10 16 -41 -19 -37 -5 -37 31 1 22 23 25 30 12 30 -21 0 -31 52 -20 104 12
58 33 59 33 1 0 -42 1 -45 16 -31 19 20 81 20 154 1 54 -14 77 -12 50 6 -8 5
-32 14 -52 19 -42 12 -50 20 -38 39 6 11 12 11 31 -3 13 -9 31 -16 40 -16 9 0
20 -8 23 -17 6 -15 8 -15 16 -3 6 8 10 30 10 48 0 36 23 44 38 15z m-954 -2
c7 -11 -22 -23 -35 -15 -5 3 -7 10 -4 15 8 12 32 12 39 0z m560 -6 c-4 -8 -12
-15 -20 -15 -8 0 -11 6 -8 15 4 8 12 15 20 15 8 0 11 -6 8 -15z m214 -14 c-3
-30 -32 -40 -42 -15 -8 20 7 41 29 41 11 0 15 -8 13 -26z m-688 15 c0 -11 -19
-15 -25 -6 -3 5 1 10 9 10 9 0 16 -2 16 -4z m70 -11 c0 -2 -7 -5 -15 -9 -9 -3
-15 0 -15 9 0 9 6 12 15 9 8 -4 15 -7 15 -9z m556 -20 c-3 -8 -10 -15 -15 -15
-11 0 -9 19 4 40 11 17 20 -3 11 -25z m307 -5 c7 -29 -6 -42 -27 -27 -13 9
-16 20 -12 35 8 24 32 20 39 -8z m56 4 c3 -16 1 -17 -13 -5 -19 16 -21 34 -3
29 6 -3 14 -13 16 -24z m-569 12 c0 -2 -7 -9 -15 -16 -12 -10 -15 -10 -15 4 0
9 7 16 15 16 8 0 15 -2 15 -4z m-475 -16 c3 -5 -3 -10 -15 -10 -12 0 -18 5
-15 10 3 6 10 10 15 10 5 0 12 -4 15 -10z m75 -5 c0 -8 -6 -15 -14 -15 -20 0
-29 17 -14 23 22 9 28 7 28 -8z m110 5 c0 -5 -4 -10 -10 -10 -5 0 -10 5 -10
10 0 6 5 10 10 10 6 0 10 -4 10 -10z m394 1 c3 -5 -1 -14 -8 -20 -16 -13 -32
2 -21 19 8 12 22 13 29 1z m-434 -20 c0 -5 -7 -11 -15 -15 -9 -3 -15 0 -15 9
0 8 7 15 15 15 8 0 15 -4 15 -9z m130 -6 c0 -8 -6 -15 -14 -15 -8 0 -16 7 -20
15 -4 10 1 15 14 15 11 0 20 -7 20 -15z m250 0 c0 -16 -27 -32 -37 -22 -3 4
-3 13 0 22 8 20 37 20 37 0z m570 -11 c0 -8 -4 -12 -10 -9 -5 3 -10 13 -10 21
0 8 5 12 10 9 6 -3 10 -13 10 -21z m-50 -20 c0 -8 -4 -14 -10 -14 -12 0 -31
35 -23 44 9 8 33 -14 33 -30z m-953 3 c-6 -20 -27 -19 -27 2 0 14 5 19 15 14
9 -3 14 -10 12 -16z m131 0 c2 -10 -3 -17 -12 -17 -9 0 -16 2 -16 4 0 2 -3 12
-6 21 -5 13 -2 16 12 13 10 -2 20 -11 22 -21z m124 1 c-6 -6 -15 -8 -19 -4 -4
4 -1 11 7 16 19 12 27 3 12 -12z m62 7 c-4 -8 -8 -15 -10 -15 -2 0 -4 7 -4 15
0 8 4 15 10 15 5 0 7 -7 4 -15z m56 -19 c0 -8 -6 -19 -14 -25 -11 -9 -15 -7
-19 8 -5 21 11 44 25 35 4 -3 8 -11 8 -18z m110 -1 c0 -16 -6 -25 -15 -25 -28
0 -18 40 13 49 1 1 2 -10 2 -24z m-58 -37 c-6 -6 -16 -7 -23 -3 -9 6 -7 12 7
22 21 15 34 -1 16 -19z m618 22 c0 -5 -4 -10 -10 -10 -5 0 -10 5 -10 10 0 6 5
10 10 10 6 0 10 -4 10 -10z m-50 -16 c0 -8 -4 -12 -10 -9 -5 3 -10 10 -10 16
0 5 5 9 10 9 6 0 10 -7 10 -16z m-679 -26 c-8 -24 -31 -37 -31 -19 0 17 23 50
32 45 4 -3 4 -14 -1 -26z m619 11 c0 -5 -4 -9 -10 -9 -5 0 -10 7 -10 16 0 8 5
12 10 9 6 -3 10 -10 10 -16z m-574 -37 c-14 -14 -16 -14 -16 -1 0 20 23 44 29
28 2 -6 -4 -18 -13 -27z m-197 2 c-14 -17 -62 -44 -79 -44 -35 0 29 42 89 59
2 1 -2 -6 -10 -15z m815 1 c3 -8 1 -15 -4 -15 -6 0 -10 7 -10 15 0 8 2 15 4
15 2 0 6 -7 10 -15z m-1270 -8 c16 -12 14 -13 -18 -9 -20 2 -36 8 -36 13 0 13
34 11 54 -4z m56 -27 c0 -15 -66 -23 -97 -12 -26 10 -24 11 20 10 26 -1 50 2
54 5 9 10 23 8 23 -3z m415 1 c-8 -14 -94 -55 -101 -49 -3 3 14 17 38 31 45
26 73 34 63 18z m185 -16 c-7 -9 -15 -13 -18 -10 -3 2 1 11 8 20 7 9 15 13 18
10 3 -2 -1 -11 -8 -20z m-40 11 c0 -3 -4 -8 -10 -11 -5 -3 -10 -1 -10 4 0 6 5
11 10 11 6 0 10 -2 10 -4z m60 -71 c-8 -21 -14 -25 -22 -17 -9 9 -8 18 1 38 8
18 15 24 22 17 6 -6 6 -19 -1 -38z m-235 15 c-7 -11 -88 -50 -104 -50 -6 0
-11 5 -11 10 0 6 9 10 19 10 11 0 23 5 26 11 8 11 42 27 63 28 7 1 10 -4 7 -9z
m178 -27 c-4 -10 -9 -11 -16 -4 -5 5 -7 18 -3 28 6 14 9 15 16 4 4 -8 6 -21 3
-28z m710 17 c-3 -11 -7 -20 -9 -20 -2 0 -4 9 -4 20 0 11 4 20 9 20 5 0 7 -9
4 -20z m-838 -20 c-3 -5 -11 -10 -16 -10 -6 0 -7 5 -4 10 3 6 11 10 16 10 6 0
7 -4 4 -10z m-405 -81 c-12 -22 2 -33 33 -24 22 6 22 6 2 -10 -42 -34 -53 -37
-75 -15 -11 11 -20 27 -20 36 0 12 -6 15 -27 10 -26 -5 -26 -5 -6 5 13 7 24
25 28 46 l6 36 34 -33 c27 -26 32 -37 25 -51z m360 61 c0 -5 -9 -14 -20 -20
-15 -8 -20 -8 -20 3 0 8 3 17 7 20 10 10 33 8 33 -3z m-285 -20 c3 -6 -1 -7
-9 -4 -18 7 -21 14 -7 14 6 0 13 -4 16 -10z m495 -65 c5 -32 7 -61 5 -63 -9
-10 -35 68 -35 105 0 55 18 29 30 -42z m-215 35 c-3 -5 -11 -10 -16 -10 -6 0
-7 5 -4 10 3 6 11 10 16 10 6 0 7 -4 4 -10z m-249 -18 c-10 -2 -22 0 -28 6 -6
6 0 7 19 4 21 -5 23 -7 9 -10z m194 -2 c0 -5 -7 -10 -16 -10 -8 0 -12 5 -9 10
3 6 10 10 16 10 5 0 9 -4 9 -10z m37 -37 c-15 -16 -17 -16 -17 -1 0 9 6 18 13
21 20 7 22 -2 4 -20z m-44 -18 c-3 -13 -12 -30 -21 -37 -9 -7 -13 -8 -9 -2 3
6 11 23 16 38 13 33 20 34 14 1z m-358 -5 c8 -13 -5 -13 -25 0 -13 8 -13 10 2
10 9 0 20 -4 23 -10z"/>
<path d="M2360 3880 c0 -5 5 -10 10 -10 6 0 10 5 10 10 0 6 -4 10 -10 10 -5 0
-10 -4 -10 -10z"/>
<path d="M2500 3745 c-7 -9 -11 -18 -8 -20 3 -3 11 1 18 10 7 9 11 18 8 20 -3
3 -11 -1 -18 -10z"/>
<path d="M2528 3719 c-23 -9 -44 -36 -35 -45 2 -2 19 10 38 26 37 32 37 33 -3
19z"/>
<path d="M2520 3650 c-14 -10 -22 -21 -20 -24 3 -2 16 4 30 14 14 10 22 21 20
24 -3 2 -16 -4 -30 -14z"/>
<path d="M2525 3585 c-17 -13 -28 -25 -25 -28 3 -3 18 5 35 18 16 13 27 26 24
29 -3 3 -18 -6 -34 -19z"/>
<path d="M2549 3460 l-24 -20 28 11 c15 7 27 16 27 21 0 12 -5 10 -31 -12z"/>
<path d="M2618 3429 c-50 -25 -81 -49 -63 -49 6 0 115 58 124 66 2 2 2 6 0 8
-2 2 -30 -9 -61 -25z"/>
<path d="M2655 3379 c-44 -22 -65 -39 -48 -39 7 0 29 10 50 22 47 27 47 27 42
32 -2 2 -22 -4 -44 -15z"/>
<path d="M2420 3310 c-19 -16 -30 -30 -24 -30 6 0 27 13 45 30 44 39 25 39
-21 0z"/>
<path d="M2649 3310 c-30 -25 -14 -25 31 0 28 16 31 19 14 20 -12 0 -32 -9
-45 -20z"/>
<path d="M2713 3253 c-13 -2 -23 -11 -23 -18 0 -12 5 -12 25 -3 14 6 25 15 25
20 0 4 -1 7 -2 7 -2 -1 -13 -4 -25 -6z"/>
<path d="M2529 3192 c-47 -31 -89 -72 -72 -72 5 0 18 8 29 18 11 10 39 33 63
50 55 40 41 42 -20 4z"/>
<path d="M2708 3209 c-28 -16 -21 -30 7 -17 14 6 25 15 25 20 0 11 -11 10 -32
-3z"/>
<path d="M3048 2743 c-19 -21 -24 -43 -9 -43 15 0 33 28 29 46 -3 14 -5 14
-20 -3z"/>
<path d="M3102 2710 c-24 -31 -27 -40 -14 -40 9 0 46 60 40 66 -3 2 -14 -10
-26 -26z"/>
<path d="M3380 2715 c-6 -8 -10 -20 -8 -26 2 -6 12 0 21 15 18 27 8 37 -13 11z"/>
<path d="M3176 2680 c-24 -29 -33 -50 -22 -50 9 0 59 71 54 76 -3 3 -17 -9
-32 -26z"/>
<path d="M3242 2652 c-13 -17 -18 -33 -13 -37 12 -7 44 40 39 56 -2 7 -14 -1
-26 -19z"/>
<path d="M3386 2638 c-20 -23 -36 -46 -36 -52 0 -15 68 54 73 75 7 27 3 24
-37 -23z"/>
<path d="M3451 2642 c-24 -35 -27 -54 -7 -46 15 6 42 61 33 70 -2 3 -14 -8
-26 -24z"/>
<path d="M3290 2630 c-34 -32 -36 -50 -2 -29 21 13 46 48 39 55 -2 3 -19 -9
-37 -26z"/>
<path d="M3639 2624 c-12 -14 -11 -16 5 -13 11 2 21 10 24 17 5 17 -13 15 -29
-4z"/>
<path d="M3471 2559 c-13 -17 -21 -33 -17 -36 7 -7 45 38 46 55 0 16 -1 15
-29 -19z"/>
<path d="M3561 2548 c-24 -23 -38 -44 -31 -46 6 -2 19 3 28 11 16 15 57 77 50
77 -2 0 -23 -19 -47 -42z"/>
<path d="M3625 2530 c-16 -16 -25 -30 -19 -30 12 0 25 10 48 38 28 33 4 27
-29 -8z"/>
<path d="M3690 2525 c-25 -27 -12 -35 14 -9 14 14 22 34 13 34 -2 0 -14 -11
-27 -25z"/>
<path d="M2095 2565 c-5 -2 -23 -6 -39 -10 -20 -4 -26 -9 -17 -14 15 -10 59
-2 67 11 7 11 3 16 -11 13z"/>
<path d="M2426 2558 c11 -21 47 -58 55 -58 3 0 9 8 12 19 3 14 -4 23 -30 35
-41 19 -46 20 -37 4z"/>
<path d="M2230 2550 c0 -11 89 -54 97 -46 6 6 -48 42 -74 50 -14 5 -23 3 -23
-4z"/>
<path d="M2355 2530 c16 -16 35 -30 42 -30 23 0 -8 39 -41 50 l-30 10 29 -30z"/>
<path d="M2040 2491 c-50 -18 -61 -44 -37 -83 13 -20 13 -30 1 -73 -21 -79
-20 -83 41 -110 30 -13 55 -28 55 -32 0 -5 13 -24 28 -43 l28 -33 34 16 c18
10 46 17 61 17 15 0 31 6 36 13 4 6 8 54 9 105 1 92 0 94 -25 103 -51 18 -72
33 -91 63 -29 47 -59 76 -78 75 -9 -1 -37 -9 -62 -18z m75 -30 c8 -14 -8 -21
-34 -14 -17 4 -19 8 -9 14 17 11 35 11 43 0z m-73 -10 c-17 -10 2 -27 38 -34
l25 -4 -27 -2 c-15 0 -34 6 -42 15 -17 16 -13 34 7 34 8 0 8 -3 -1 -9z m172
-83 c68 -35 71 -78 5 -78 -45 0 -79 27 -79 63 0 44 13 46 74 15z m-137 -34
c-16 -9 -32 -13 -35 -9 -9 9 19 25 43 24 16 0 15 -2 -8 -15z m23 -29 c0 -6
-56 -35 -67 -35 -4 0 6 9 22 20 29 19 45 25 45 15z m15 -45 c-10 -11 -20 -18
-23 -15 -7 6 18 35 31 35 5 0 2 -9 -8 -20z m75 -22 c-1 -7 -7 -26 -14 -43 -11
-23 -15 -26 -20 -14 -8 19 9 69 24 69 5 0 10 -6 10 -12z m40 -23 c0 -19 -4
-35 -10 -35 -11 0 -14 53 -3 63 11 12 13 8 13 -28z"/>
<path d="M2199 2490 c12 -11 28 -17 34 -13 12 8 -20 33 -42 33 -12 -1 -10 -6
8 -20z"/>
<path d="M2310 2401 c4 -15 14 -39 21 -52 20 -39 24 -3 4 42 -21 45 -37 52
-25 10z"/>
<path d="M2409 2345 c-10 -9 6 -78 18 -82 9 -3 11 5 7 29 -8 39 -18 61 -25 53z"/>
<path d="M1825 1950 c3 -5 13 -10 21 -10 8 0 14 5 14 10 0 6 -9 10 -21 10 -11
0 -17 -4 -14 -10z"/>
<path d="M1695 1934 c-20 -15 -20 -16 4 -12 14 2 26 9 29 16 5 16 -9 15 -33
-4z"/>
<path d="M1567 1925 c-4 -8 -2 -17 3 -20 6 -4 10 -4 10 -1 0 2 3 11 6 20 3 9
2 16 -4 16 -5 0 -12 -7 -15 -15z"/>
<path d="M1856 1911 c13 -12 74 -22 74 -12 0 12 -26 21 -58 21 -15 0 -22 -4
-16 -9z"/>
<path d="M2079 1701 c-4 -35 -3 -45 9 -48 15 -6 17 43 2 52 -5 3 -11 1 -11 -4z"/>
<path d="M2698 1888 c9 -9 15 -9 24 0 9 9 7 12 -12 12 -19 0 -21 -3 -12 -12z"/>
<path d="M2830 1891 c0 -5 16 -11 35 -13 39 -4 48 6 13 16 -32 8 -48 7 -48 -3z"/>
<path d="M2722 1852 c-25 -8 -10 -22 21 -18 17 2 38 4 45 5 6 0 12 6 12 11 0
10 -52 11 -78 2z"/>
<path d="M2676 1811 c-17 -19 -17 -19 3 -14 12 3 21 12 21 19 0 18 -4 18 -24
-5z"/>
<path d="M2970 1785 c12 -13 27 -22 32 -19 12 8 -21 44 -40 44 -12 0 -10 -6 8
-25z"/>
<path d="M2772 1754 c-19 -26 -47 -51 -67 -60 -44 -18 -44 -36 0 -70 28 -21
34 -32 32 -58 l-2 -31 46 3 c33 2 58 -3 85 -17 41 -22 54 -16 54 25 0 11 11
31 25 44 14 13 25 30 25 38 0 8 12 28 26 45 31 37 20 52 -46 61 -34 5 -50 13
-68 36 -36 46 -70 41 -110 -16z m97 -11 c5 -10 24 -23 43 -29 18 -7 25 -13 15
-13 -23 -1 -77 26 -77 39 0 20 -29 9 -49 -17 l-21 -28 11 30 c16 45 28 56 50
45 10 -6 22 -18 28 -27z m21 -78 c0 -8 -12 -22 -26 -31 -19 -13 -24 -24 -21
-41 3 -15 1 -21 -4 -16 -12 12 -15 76 -5 91 11 18 56 15 56 -3z"/>
<path d="M2602 1698 c-15 -15 -16 -55 -2 -63 6 -3 10 -5 10 -3 0 2 4 18 9 35
10 35 2 50 -17 31z"/>
<path d="M3077 1662 c4 -32 -1 -50 -17 -77 -28 -45 -17 -60 16 -22 27 32 32
92 10 122 -12 17 -13 15 -9 -23z"/>
<path d="M3036 1613 c-8 -8 -36 -71 -36 -81 0 -15 39 33 45 55 6 27 3 38 -9
26z"/>
<path d="M2604 1532 c14 -28 34 -42 59 -42 13 0 -31 48 -56 62 -17 9 -17 8 -3
-20z"/>
<path d="M2733 1447 c-9 -15 5 -20 54 -20 41 1 133 18 133 26 0 7 -182 1 -187
-6z"/>
<path d="M750 1765 c0 -8 7 -15 15 -15 9 0 12 6 9 15 -4 8 -10 15 -15 15 -5 0
-9 -7 -9 -15z"/>
<path d="M3653 1765 c-9 -24 6 -31 21 -10 17 24 46 13 46 -17 0 -13 -13 -37
-29 -53 -15 -17 -33 -41 -40 -53 -11 -21 -10 -22 44 -22 49 0 55 2 55 21 0 18
-3 19 -14 10 -8 -7 -26 -11 -40 -9 l-25 3 38 44 c36 42 43 64 26 91 -10 16
-75 12 -82 -5z"/>
<path d="M3800 1765 c-7 -9 -15 -38 -18 -66 -4 -38 -1 -54 13 -69 22 -24 58
-26 76 -4 18 22 21 105 3 132 -17 26 -56 29 -74 7z m55 -14 c8 -27 9 -107 1
-120 -12 -19 -36 -12 -45 12 -9 23 -6 101 5 118 9 16 32 10 39 -10z"/>
<path d="M3949 1759 c-22 -19 -22 -20 -3 -14 19 5 20 1 20 -56 -1 -52 -4 -63
-21 -70 -13 -5 -2 -8 35 -8 43 0 50 2 33 9 -21 9 -23 16 -23 85 0 41 -4 75 -9
75 -5 0 -19 -9 -32 -21z"/>
<path d="M4076 1764 c-18 -18 -21 -50 -5 -60 8 -4 8 -9 0 -17 -20 -20 -13 -57
14 -69 54 -24 109 26 74 68 -9 11 -9 18 -1 26 18 18 14 46 -7 58 -28 14 -57
12 -75 -6z m63 -11 c11 -21 -3 -53 -23 -53 -25 0 -39 26 -26 49 13 25 36 27
49 4z m1 -84 c13 -23 -1 -49 -26 -49 -18 0 -35 34 -28 54 9 23 41 20 54 -5z"/>
<path d="M641 1716 c-16 -19 -3 -45 25 -52 30 -8 33 -44 5 -44 -11 0 -21 6
-24 13 -2 6 -8 9 -12 5 -13 -12 6 -28 34 -28 56 0 62 43 9 73 -24 14 -28 21
-19 30 9 9 16 9 31 -1 26 -16 31 -15 24 3 -8 19 -58 20 -73 1z"/>
<path d="M740 1715 c8 -10 11 -32 8 -60 -5 -42 -4 -45 19 -45 17 0 22 4 16 13
-10 15 -10 18 -12 67 -1 34 -4 40 -22 40 -18 0 -19 -2 -9 -15z"/>
<path d="M809 1720 c10 -5 12 -23 9 -59 -5 -50 -4 -51 21 -50 14 0 20 3 14 6
-20 8 -17 89 4 97 26 10 35 -8 32 -58 -4 -42 -2 -46 19 -46 16 0 21 4 15 13
-4 6 -10 32 -13 57 l-5 45 -55 2 c-32 1 -49 -2 -41 -7z"/>
<path d="M966 1717 c-13 -9 -17 -23 -14 -52 2 -33 8 -41 31 -49 22 -8 31 -6
45 8 16 17 16 18 -6 5 -21 -12 -25 -12 -38 5 -30 41 -4 105 31 76 17 -14 31
-8 20 9 -9 15 -47 14 -69 -2z"/>
<path d="M1076 1717 c-21 -15 -24 -70 -6 -92 19 -23 80 -17 80 8 0 7 -4 7 -12
-1 -17 -17 -45 -15 -52 4 -11 28 -7 33 31 36 41 3 51 18 28 42 -20 19 -45 21
-69 3z m52 -20 c3 -12 -4 -17 -22 -17 -28 0 -33 9 -14 28 15 15 32 10 36 -11z"/>
<path d="M70 1171 c0 -6 9 -15 20 -21 19 -10 20 -21 20 -205 0 -184 -1 -196
-20 -207 -11 -7 -20 -16 -20 -21 0 -4 53 -7 119 -6 145 2 193 18 217 74 25 61
1 133 -52 157 -29 14 -31 25 -3 33 29 10 59 63 59 107 0 39 -25 72 -65 88 -31
12 -275 13 -275 1z m251 -50 c26 -32 24 -84 -4 -117 -20 -23 -34 -28 -83 -32
l-59 -4 1 83 c1 46 2 88 3 93 0 4 29 6 62 4 49 -4 66 -9 80 -27z m-31 -190
c52 -14 71 -102 35 -158 -15 -22 -78 -38 -126 -31 -23 3 -24 6 -25 93 0 50 2
93 4 98 4 9 77 8 112 -2z"/>
<path d="M610 1172 c0 -4 9 -13 20 -20 19 -11 20 -23 20 -207 0 -184 -1 -196
-20 -207 -11 -7 -20 -16 -20 -20 0 -5 70 -8 155 -8 l155 0 1 33 c0 17 2 49 3
70 2 53 -27 51 -43 -3 -17 -59 -34 -70 -101 -70 -37 0 -59 4 -62 13 -4 10 -3
291 1 369 1 17 8 29 21 33 11 4 18 11 15 16 -7 11 -145 12 -145 1z"/>
<path d="M1070 1172 c0 -4 9 -15 20 -25 18 -15 20 -29 20 -179 0 -186 9 -220
70 -251 43 -22 146 -18 185 7 50 33 58 67 60 245 1 155 2 164 23 181 29 24 19
30 -55 30 -50 0 -63 -3 -63 -16 0 -8 4 -13 9 -9 22 13 29 -39 27 -196 -1 -138
-4 -170 -19 -192 -20 -31 -53 -42 -102 -33 -61 12 -68 35 -70 224 -2 166 -1
167 24 195 l25 27 -77 0 c-42 0 -77 -3 -77 -8z"/>
<path d="M1650 1172 c0 -4 9 -13 20 -20 19 -11 20 -23 20 -207 0 -184 -1 -196
-20 -207 -11 -7 -20 -16 -20 -20 0 -5 72 -8 160 -8 l160 0 1 40 c1 22 2 48 3
57 0 10 -6 19 -16 21 -11 2 -20 -8 -28 -33 -15 -46 -37 -57 -113 -53 l-62 3 0
95 0 95 47 3 c41 3 49 0 64 -22 29 -46 44 -33 44 39 0 72 -15 85 -44 40 -14
-21 -24 -25 -64 -25 l-47 0 0 90 0 90 67 0 c55 0 72 -4 88 -20 11 -11 20 -27
20 -35 0 -8 9 -15 20 -15 17 0 20 7 20 50 l0 50 -160 0 c-88 0 -160 -3 -160
-8z"/>
<path d="M2160 1172 c0 -4 9 -13 20 -20 19 -11 20 -23 20 -207 0 -184 -1 -195
-20 -205 -47 -25 -20 -32 113 -28 148 4 173 13 201 73 30 63 1 139 -65 169
-12 5 -11 7 1 13 8 3 28 19 44 35 26 26 28 34 24 80 -6 56 -28 82 -81 92 -43
9 -257 7 -257 -2z m251 -51 c26 -32 24 -84 -4 -117 -20 -23 -34 -28 -83 -32
l-59 -4 1 88 c1 49 2 91 3 93 0 2 29 1 62 -1 49 -4 66 -9 80 -27z m-27 -191
c45 -17 66 -90 39 -142 -18 -37 -38 -46 -103 -44 l-55 1 0 85 c-1 47 1 91 3
98 5 14 79 16 116 2z"/>
<path d="M2700 1172 c0 -4 9 -13 20 -20 19 -11 20 -23 20 -207 0 -184 -1 -196
-20 -207 -11 -7 -20 -16 -20 -20 0 -5 72 -8 160 -8 l160 0 1 40 c1 22 2 48 3
58 2 31 -37 20 -46 -13 -11 -44 -34 -55 -108 -55 l-66 0 1 98 0 97 47 3 c41 3
49 0 64 -22 29 -46 44 -33 44 39 0 60 -2 65 -22 65 -12 0 -18 -3 -15 -7 17
-16 -27 -43 -72 -43 l-46 0 0 90 0 90 67 0 c55 0 72 -4 88 -20 11 -11 20 -27
20 -35 0 -8 9 -15 19 -15 15 0 20 9 23 39 2 22 2 45 0 50 -4 13 -322 16 -322
3z"/>
<path d="M3220 1171 c0 -6 9 -15 20 -21 19 -10 20 -21 20 -205 0 -184 -1 -196
-20 -207 -35 -22 -22 -28 56 -28 l76 0 -24 28 c-20 24 -23 39 -23 98 0 68 1
69 27 72 44 5 64 -14 115 -108 l48 -90 54 0 55 0 -35 33 c-20 17 -46 54 -60
81 -13 27 -37 62 -52 78 -16 16 -23 28 -15 28 19 0 67 47 79 77 23 62 1 130
-52 155 -37 19 -269 26 -269 9z m208 -32 c38 -13 57 -55 49 -111 -8 -56 -34
-80 -96 -86 -28 -2 -52 -1 -52 4 -1 5 -2 53 -3 107 l-1 97 36 0 c20 0 50 -5
67 -11z"/>
<path d="M3760 1173 c0 -5 9 -14 20 -21 19 -11 20 -23 20 -207 0 -184 -1 -195
-20 -205 -38 -20 -20 -30 56 -30 l76 0 -24 28 c-20 24 -23 39 -23 98 0 68 1
69 27 72 42 5 66 -14 99 -81 54 -106 64 -117 114 -117 51 0 65 12 31 28 -14 6
-41 41 -61 77 -21 37 -48 77 -61 89 l-24 21 35 19 c84 45 87 178 4 218 -34 17
-269 26 -269 11z m208 -34 c38 -13 57 -55 49 -111 -8 -56 -34 -80 -96 -86 -39
-3 -51 -1 -52 9 -4 37 -5 185 -2 192 6 11 65 9 101 -4z"/>
<path d="M4247 1174 c-3 -3 5 -16 18 -28 13 -11 35 -41 48 -66 13 -25 40 -74
59 -110 32 -59 34 -72 33 -140 -2 -63 -6 -76 -24 -88 -11 -8 -21 -18 -21 -23
0 -12 147 -11 155 1 3 6 2 10 -4 10 -28 0 -41 33 -41 108 l0 77 66 110 c36 60
74 115 85 123 33 23 21 32 -46 32 -62 0 -84 -11 -49 -24 12 -5 15 -14 11 -34
-6 -28 -78 -162 -87 -162 -8 0 -90 156 -90 173 0 8 7 17 15 21 8 3 15 10 15
16 0 11 -132 15 -143 4z"/>
</g>
</svg>
